<svg xmlns="http://www.w3.org/2000/svg" xmlns:xlink="http://www.w3.org/1999/xlink" width="500" zoomAndPan="magnify" viewBox="0 0 375 374.999991" height="500" preserveAspectRatio="xMidYMid meet" version="1.0"><defs><clipPath id="5bbc9420cd"><path d="M 74.0625 0 L 301.3125 0 L 301.3125 51 L 74.0625 51 Z M 74.0625 0 " clip-rule="nonzero"/></clipPath><clipPath id="122132c759"><path d="M 155 0 L 301.3125 0 L 301.3125 239 L 155 239 Z M 155 0 " clip-rule="nonzero"/></clipPath><clipPath id="4293237322"><path d="M 74.0625 0 L 218 0 L 218 239 L 74.0625 239 Z M 74.0625 0 " clip-rule="nonzero"/></clipPath></defs><path fill="#ffffff" d="M 298.53125 48.082031 L 76.808594 48.082031 L 110.410156 3.109375 L 264.933594 3.109375 L 298.53125 48.082031 " fill-opacity="1" fill-rule="nonzero"/><g clip-path="url(#5bbc9420cd)"><path fill="#231f20" d="M 298.53125 48.082031 L 298.53125 45.496094 L 81.972656 45.496094 L 111.710938 5.695312 L 263.632812 5.695312 L 296.453125 49.625 L 298.53125 48.082031 L 298.53125 45.496094 L 298.53125 48.082031 L 300.605469 46.53125 L 267.007812 1.5625 C 266.519531 0.914062 265.746094 0.523438 264.933594 0.523438 L 110.410156 0.523438 C 109.597656 0.523438 108.820312 0.914062 108.335938 1.5625 L 74.734375 46.53125 C 74.140625 47.320312 74.054688 48.359375 74.492188 49.238281 C 74.933594 50.117188 75.824219 50.667969 76.808594 50.667969 L 298.53125 50.667969 C 299.515625 50.667969 300.40625 50.117188 300.847656 49.238281 C 301.289062 48.359375 301.195312 47.320312 300.605469 46.53125 L 298.53125 48.082031 " fill-opacity="1" fill-rule="nonzero"/></g><path fill="#ffffff" d="M 157.863281 235.710938 L 264.933594 3.109375 L 298.53125 48.082031 L 215.304688 235.710938 L 157.863281 235.710938 " fill-opacity="1" fill-rule="nonzero"/><g clip-path="url(#122132c759)"><path fill="#231f20" d="M 157.863281 235.710938 L 160.214844 236.792969 L 265.464844 8.148438 L 295.546875 48.414062 L 213.617188 233.125 L 157.863281 233.125 L 157.863281 235.710938 L 160.214844 236.792969 L 157.863281 235.710938 L 157.863281 238.300781 L 215.304688 238.300781 C 216.328125 238.300781 217.257812 237.691406 217.675781 236.757812 L 300.898438 49.128906 C 301.273438 48.273438 301.164062 47.28125 300.605469 46.53125 L 267.007812 1.5625 C 266.460938 0.832031 265.574219 0.445312 264.660156 0.539062 C 263.746094 0.636719 262.957031 1.199219 262.578125 2.03125 L 155.507812 234.628906 C 155.140625 235.433594 155.203125 236.367188 155.683594 237.105469 C 156.160156 237.851562 156.976562 238.300781 157.863281 238.300781 L 157.863281 235.710938 " fill-opacity="1" fill-rule="nonzero"/></g><path fill="#ffffff" d="M 224.148438 284.554688 C 224.148438 293.542969 216.832031 300.832031 207.835938 300.832031 L 164.066406 300.832031 C 155.050781 300.832031 147.757812 293.542969 147.757812 284.554688 L 147.757812 242.292969 C 147.757812 233.289062 155.050781 226.007812 164.066406 226.007812 L 207.835938 226.007812 C 216.832031 226.007812 224.148438 233.289062 224.148438 242.292969 L 224.148438 284.554688 " fill-opacity="1" fill-rule="nonzero"/><path fill="#231f20" d="M 224.148438 284.554688 L 221.558594 284.554688 C 221.558594 288.339844 220.023438 291.746094 217.53125 294.238281 C 215.039062 296.71875 211.628906 298.246094 207.835938 298.246094 L 164.066406 298.246094 C 160.265625 298.246094 156.851562 296.71875 154.363281 294.238281 C 151.871094 291.746094 150.347656 288.339844 150.347656 284.554688 L 150.347656 242.292969 C 150.347656 238.496094 151.875 235.085938 154.363281 232.601562 C 156.851562 230.121094 160.265625 228.59375 164.066406 228.59375 L 207.835938 228.59375 C 211.628906 228.59375 215.042969 230.121094 217.53125 232.601562 C 220.023438 235.089844 221.558594 238.496094 221.558594 242.292969 L 221.558594 284.554688 L 226.738281 284.554688 L 226.738281 242.292969 C 226.742188 237.082031 224.617188 232.347656 221.195312 228.945312 C 217.785156 225.53125 213.039062 223.414062 207.835938 223.417969 L 164.066406 223.417969 C 153.621094 223.417969 145.164062 231.863281 145.160156 242.292969 L 145.160156 284.554688 C 145.160156 289.753906 147.28125 294.488281 150.699219 297.894531 C 154.105469 301.304688 158.851562 303.421875 164.066406 303.417969 L 207.835938 303.417969 C 213.039062 303.421875 217.785156 301.304688 221.195312 297.894531 C 224.617188 294.488281 226.738281 289.753906 226.738281 284.554688 L 224.148438 284.554688 " fill-opacity="1" fill-rule="nonzero"/><path fill="#ffffff" d="M 215.304688 235.710938 L 110.410156 3.109375 L 76.808594 48.082031 L 157.863281 235.710938 L 215.304688 235.710938 " fill-opacity="1" fill-rule="nonzero"/><g clip-path="url(#4293237322)"><path fill="#231f20" d="M 215.304688 235.710938 L 217.667969 234.648438 L 112.773438 2.050781 C 112.398438 1.214844 111.605469 0.640625 110.695312 0.539062 C 109.785156 0.441406 108.882812 0.832031 108.335938 1.5625 L 74.734375 46.53125 C 74.179688 47.273438 74.066406 48.253906 74.429688 49.101562 L 155.484375 236.734375 C 155.890625 237.679688 156.832031 238.300781 157.863281 238.300781 L 215.304688 238.300781 C 216.1875 238.300781 217.003906 237.855469 217.480469 237.113281 C 217.957031 236.375 218.03125 235.453125 217.667969 234.648438 L 215.304688 235.710938 L 215.304688 233.125 L 159.566406 233.125 L 79.78125 48.429688 L 109.855469 8.183594 L 212.941406 236.777344 L 215.304688 235.710938 L 215.304688 233.125 L 215.304688 235.710938 " fill-opacity="1" fill-rule="nonzero"/></g><path fill="#ffffff" d="M 253.722656 305.699219 C 253.722656 342.253906 224.039062 371.890625 187.417969 371.890625 C 150.804688 371.890625 121.117188 342.253906 121.117188 305.699219 C 121.117188 269.136719 150.804688 239.496094 187.417969 239.496094 C 224.039062 239.496094 253.722656 269.136719 253.722656 305.699219 " fill-opacity="1" fill-rule="nonzero"/><path fill="#231f20" d="M 253.722656 305.699219 L 251.128906 305.699219 C 251.128906 323.269531 244.003906 339.15625 232.46875 350.671875 C 220.933594 362.191406 205.019531 369.300781 187.417969 369.304688 C 169.816406 369.300781 153.90625 362.191406 142.367188 350.671875 C 130.835938 339.15625 123.707031 323.269531 123.707031 305.699219 C 123.707031 288.121094 130.835938 272.238281 142.367188 260.714844 C 153.90625 249.199219 169.816406 242.085938 187.417969 242.082031 C 205.019531 242.085938 220.933594 249.199219 232.46875 260.714844 C 244.003906 272.238281 251.128906 288.121094 251.128906 305.699219 L 256.3125 305.699219 C 256.3125 267.707031 225.472656 236.914062 187.417969 236.910156 C 149.371094 236.914062 118.527344 267.707031 118.527344 305.699219 C 118.527344 343.679688 149.371094 374.476562 187.417969 374.480469 C 225.472656 374.476562 256.3125 343.679688 256.3125 305.699219 L 253.722656 305.699219 " fill-opacity="1" fill-rule="nonzero"/><path fill="#ffffff" d="M 241.960938 305.699219 C 241.960938 335.769531 217.546875 360.144531 187.417969 360.144531 C 157.304688 360.144531 132.878906 335.769531 132.878906 305.699219 C 132.878906 275.625 157.304688 251.242188 187.417969 251.242188 C 217.546875 251.242188 241.960938 275.625 241.960938 305.699219 " fill-opacity="1" fill-rule="nonzero"/><path fill="#231f20" d="M 241.960938 305.699219 L 239.371094 305.699219 C 239.371094 320.027344 233.5625 332.976562 224.15625 342.367188 C 214.746094 351.753906 201.773438 357.558594 187.417969 357.558594 C 173.066406 357.558594 160.097656 351.757812 150.6875 342.367188 C 141.285156 332.976562 135.472656 320.027344 135.472656 305.699219 C 135.472656 291.363281 141.285156 278.414062 150.6875 269.019531 C 160.097656 259.628906 173.066406 253.828125 187.417969 253.828125 C 201.773438 253.828125 214.746094 259.632812 224.15625 269.019531 C 233.5625 278.414062 239.371094 291.363281 239.371094 305.699219 L 244.550781 305.699219 C 244.550781 274.191406 218.976562 248.65625 187.417969 248.65625 C 155.871094 248.660156 130.289062 274.191406 130.289062 305.699219 C 130.289062 337.199219 155.871094 362.730469 187.417969 362.730469 C 218.976562 362.730469 244.550781 337.199219 244.550781 305.699219 L 241.960938 305.699219 " fill-opacity="1" fill-rule="nonzero"/></svg>