<svg xmlns="http://www.w3.org/2000/svg" xmlns:xlink="http://www.w3.org/1999/xlink" width="500" zoomAndPan="magnify" viewBox="0 0 375 374.999991" height="500" preserveAspectRatio="xMidYMid meet" version="1.0"><path fill="#010101" d="M 368.757812 306.636719 L 357.980469 306.636719 L 357.980469 93.890625 C 357.980469 93.324219 357.980469 92.757812 357.980469 92.191406 C 364.789062 83.113281 368.757812 71.765625 368.757812 59.851562 C 368.757812 26.949219 338.691406 0.285156 302.382812 0.285156 C 265.507812 0.285156 236.007812 26.949219 236.007812 59.851562 C 236.007812 61.554688 236.007812 63.257812 236.574219 64.957031 L 173.035156 64.957031 C 161.6875 58.152344 149.207031 54.179688 135.589844 54.179688 C 121.972656 54.179688 108.925781 58.152344 98.148438 64.957031 L 45.386719 64.957031 C 29.5 64.957031 16.453125 78.007812 16.453125 93.890625 C 16.453125 171.046875 16.453125 224.941406 16.453125 306.636719 L 5.671875 306.636719 C 2.269531 306.636719 0 308.90625 0 312.3125 L 0 321.957031 C 0 350.890625 23.828125 374.714844 52.761719 374.714844 L 322.238281 374.714844 C 351.171875 374.714844 375 350.890625 375 321.957031 L 375 312.3125 C 374.433594 309.472656 372.164062 306.636719 368.757812 306.636719 Z M 302.382812 11.628906 C 332.449219 11.628906 357.414062 33.1875 357.414062 59.851562 C 357.414062 86.515625 332.449219 108.074219 302.382812 108.074219 C 290.46875 108.074219 279.121094 104.671875 269.476562 98.429688 C 268.34375 97.863281 267.207031 97.296875 266.074219 97.296875 C 264.941406 97.296875 264.371094 97.296875 263.804688 97.863281 L 245.652344 106.941406 L 254.726562 88.785156 C 255.863281 87.082031 255.296875 84.816406 254.726562 83.113281 C 250.1875 75.738281 247.917969 67.796875 247.917969 59.285156 C 247.351562 33.1875 271.746094 11.628906 302.382812 11.628906 Z M 45.386719 76.304688 L 83.964844 76.304688 C 73.75 86.515625 66.945312 99.566406 63.539062 114.316406 C 57.867188 116.585938 53.328125 121.691406 53.328125 128.5 C 53.328125 139.84375 60.703125 145.519531 68.644531 145.519531 L 76.019531 145.519531 C 79.425781 145.519531 81.695312 143.25 81.695312 139.84375 L 81.695312 119.421875 C 81.695312 116.015625 79.425781 113.75 76.019531 113.75 L 75.453125 113.75 C 82.261719 86.515625 107.222656 66.09375 135.589844 66.09375 C 163.957031 66.09375 188.917969 85.949219 195.726562 113.75 L 195.160156 113.75 C 191.753906 113.75 189.484375 116.015625 189.484375 119.421875 L 189.484375 139.84375 C 189.484375 143.25 191.753906 145.519531 195.160156 145.519531 L 195.726562 145.519531 C 192.890625 151.757812 186.648438 156.863281 178.707031 160.269531 C 178.140625 160.269531 177.570312 160.835938 177.003906 160.835938 C 182.679688 151.757812 186.648438 140.414062 186.648438 129.066406 C 186.648438 100.132812 163.957031 76.304688 136.15625 76.304688 C 108.359375 76.304688 85.097656 99.566406 85.097656 128.5 C 85.097656 158.566406 108.359375 184.664062 135.023438 185.230469 L 118.570312 185.230469 C 83.394531 185.230469 52.195312 213.03125 52.195312 252.742188 C 52.195312 256.144531 54.464844 258.414062 57.867188 258.414062 L 213.3125 258.414062 C 216.71875 258.414062 218.988281 256.144531 218.988281 252.742188 C 218.988281 213.03125 187.214844 185.230469 152.609375 185.230469 L 136.15625 185.230469 C 146.9375 185.230469 157.148438 180.691406 165.65625 173.316406 C 166.226562 173.316406 166.792969 173.316406 166.792969 173.316406 C 171.898438 173.316406 177.003906 172.183594 182.109375 170.480469 C 195.160156 165.375 204.804688 155.164062 207.640625 144.382812 C 213.3125 142.113281 217.285156 137.007812 217.285156 128.5 C 217.285156 121.691406 213.3125 116.585938 207.074219 114.316406 C 204.234375 99.566406 196.859375 86.515625 186.648438 76.304688 L 237.707031 76.304688 C 238.84375 79.707031 240.542969 83.113281 242.246094 86.515625 L 226.363281 117.152344 C 225.226562 119.421875 225.792969 122.257812 227.496094 123.960938 C 229.199219 125.660156 232.035156 126.230469 234.304688 125.09375 L 264.941406 109.777344 C 275.71875 116.015625 288.199219 119.421875 301.25 119.421875 C 318.269531 119.421875 334.152344 113.75 345.5 104.105469 L 345.5 265.789062 L 27.796875 265.789062 L 27.796875 93.890625 C 27.796875 84.246094 35.742188 76.304688 45.386719 76.304688 Z M 70.347656 124.527344 L 70.347656 133.605469 L 68.644531 133.605469 C 65.242188 133.605469 64.675781 130.769531 64.675781 127.929688 C 64.675781 125.660156 66.375 123.960938 68.644531 123.960938 L 70.347656 123.960938 Z M 200.832031 133.605469 L 200.832031 124.527344 L 202.535156 124.527344 C 204.804688 124.527344 206.503906 126.230469 206.503906 128.5 C 206.503906 131.335938 205.9375 134.171875 202.535156 134.171875 L 200.832031 134.171875 Z M 152.042969 157.433594 C 154.3125 154.59375 154.3125 151.191406 152.042969 148.921875 C 149.773438 146.652344 146.367188 147.21875 144.101562 149.488281 L 135.589844 159.132812 C 133.320312 161.402344 133.886719 164.808594 136.15625 167.078125 C 137.292969 168.210938 138.425781 168.210938 140.128906 168.210938 C 141.832031 168.210938 143.53125 167.644531 144.667969 166.507812 L 145.234375 165.941406 C 147.503906 167.644531 149.773438 168.777344 152.042969 169.914062 C 147.503906 172.75 141.832031 173.882812 136.726562 173.882812 C 116.300781 173.882812 97.578125 152.324219 97.578125 128.5 C 97.578125 105.804688 115.167969 87.082031 136.726562 87.082031 C 158.28125 87.082031 175.871094 105.804688 175.871094 128.5 C 175.871094 140.980469 170.765625 152.894531 162.820312 161.402344 C 158.851562 160.835938 155.445312 159.703125 152.042969 157.433594 Z M 152.609375 196.578125 C 181.542969 196.578125 205.371094 218.703125 207.640625 247.070312 L 63.539062 247.070312 C 65.808594 218.703125 89.636719 196.578125 118.570312 196.578125 Z M 27.796875 277.136719 L 346.632812 277.136719 L 346.632812 306.636719 L 27.796875 306.636719 Z M 321.671875 363.371094 L 52.761719 363.371094 C 31.769531 363.371094 11.347656 348.050781 11.347656 317.984375 C 11.347656 317.984375 357.414062 317.984375 363.085938 317.984375 C 363.085938 348.050781 342.664062 363.371094 321.671875 363.371094 Z M 321.671875 363.371094 " fill-opacity="1" fill-rule="nonzero"/><path fill="#010101" d="M 218.988281 286.214844 L 154.878906 286.214844 C 151.476562 286.214844 149.207031 288.484375 149.207031 291.886719 C 149.207031 295.292969 151.476562 297.558594 154.878906 297.558594 L 218.988281 297.558594 C 222.390625 297.558594 224.660156 295.292969 224.660156 291.886719 C 224.660156 288.484375 222.390625 286.214844 218.988281 286.214844 Z M 218.988281 286.214844 " fill-opacity="1" fill-rule="nonzero"/><path fill="#010101" d="M 235.4375 168.210938 L 325.644531 168.210938 C 329.046875 168.210938 331.316406 165.941406 331.316406 162.539062 C 331.316406 159.132812 329.046875 156.863281 325.644531 156.863281 L 235.4375 156.863281 C 232.035156 156.863281 229.765625 159.132812 229.765625 162.539062 C 229.765625 165.941406 232.035156 168.210938 235.4375 168.210938 Z M 235.4375 168.210938 " fill-opacity="1" fill-rule="nonzero"/><path fill="#010101" d="M 235.4375 201.117188 L 325.644531 201.117188 C 329.046875 201.117188 331.316406 198.847656 331.316406 195.441406 C 331.316406 192.039062 329.046875 189.769531 325.644531 189.769531 L 235.4375 189.769531 C 232.035156 189.769531 229.765625 192.039062 229.765625 195.441406 C 229.765625 198.847656 232.035156 201.117188 235.4375 201.117188 Z M 235.4375 201.117188 " fill-opacity="1" fill-rule="nonzero"/><path fill="#010101" d="M 235.4375 234.019531 L 325.644531 234.019531 C 329.046875 234.019531 331.316406 231.75 331.316406 228.347656 C 331.316406 224.941406 329.046875 222.675781 325.644531 222.675781 L 235.4375 222.675781 C 232.035156 222.675781 229.765625 224.941406 229.765625 228.347656 C 229.765625 231.75 232.035156 234.019531 235.4375 234.019531 Z M 235.4375 234.019531 " fill-opacity="1" fill-rule="nonzero"/><path fill="#010101" d="M 273.449219 39.996094 L 332.449219 39.996094 C 335.855469 39.996094 338.125 37.726562 338.125 34.324219 C 338.125 30.917969 335.855469 28.648438 332.449219 28.648438 L 273.449219 28.648438 C 270.046875 28.648438 267.777344 30.917969 267.777344 34.324219 C 267.777344 37.726562 270.046875 39.996094 273.449219 39.996094 Z M 273.449219 39.996094 " fill-opacity="1" fill-rule="nonzero"/><path fill="#010101" d="M 273.449219 64.390625 L 332.449219 64.390625 C 335.855469 64.390625 338.125 62.121094 338.125 58.71875 C 338.125 55.3125 335.855469 53.042969 332.449219 53.042969 L 273.449219 53.042969 C 270.046875 53.042969 267.777344 55.3125 267.777344 58.71875 C 267.777344 62.121094 270.046875 64.390625 273.449219 64.390625 Z M 273.449219 64.390625 " fill-opacity="1" fill-rule="nonzero"/><path fill="#010101" d="M 273.449219 88.785156 L 332.449219 88.785156 C 335.855469 88.785156 338.125 86.515625 338.125 83.113281 C 338.125 79.707031 335.855469 77.441406 332.449219 77.441406 L 273.449219 77.441406 C 270.046875 77.441406 267.777344 79.707031 267.777344 83.113281 C 267.777344 86.515625 270.046875 88.785156 273.449219 88.785156 Z M 273.449219 88.785156 " fill-opacity="1" fill-rule="nonzero"/></svg>