<svg xmlns="http://www.w3.org/2000/svg" xmlns:xlink="http://www.w3.org/1999/xlink" width="500" zoomAndPan="magnify" viewBox="0 0 375 374.999991" height="500" preserveAspectRatio="xMidYMid meet" version="1.0"><defs><clipPath id="c86fa4a401"><path d="M 0 83 L 375 83 L 375 326.941406 L 0 326.941406 Z M 0 83 " clip-rule="nonzero"/></clipPath><clipPath id="960f6a48cd"><path d="M 25 58.441406 L 113 58.441406 L 113 71 L 25 71 Z M 25 58.441406 " clip-rule="nonzero"/></clipPath><clipPath id="9a37144ec1"><path d="M 0 58.441406 L 13 58.441406 L 13 71 L 0 71 Z M 0 58.441406 " clip-rule="nonzero"/></clipPath></defs><g clip-path="url(#c86fa4a401)"><path fill="#100f0d" d="M 336.851562 283.234375 C 333.851562 265.550781 318.476562 252.011719 299.933594 252.011719 C 281.390625 252.011719 266.019531 265.550781 263.015625 283.234375 L 249.964844 283.234375 L 249.964844 139.617188 L 309.011719 139.617188 L 317.039062 152.105469 L 268.703125 152.105469 C 265.261719 152.105469 262.457031 154.910156 262.457031 158.347656 L 262.457031 214.546875 C 262.457031 217.984375 265.261719 220.792969 268.703125 220.792969 L 361.226562 220.792969 L 362.398438 222.621094 L 362.398438 258.257812 L 343.660156 258.257812 L 343.660156 270.746094 L 362.398438 270.746094 L 362.398438 283.234375 Z M 299.933594 314.453125 C 286.148438 314.453125 274.949219 303.257812 274.949219 289.476562 C 274.949219 275.695312 286.148438 264.5 299.933594 264.5 C 313.71875 264.5 324.921875 275.695312 324.921875 289.476562 C 324.921875 303.257812 313.71875 314.453125 299.933594 314.453125 Z M 87.558594 252.011719 C 69.015625 252.011719 53.640625 265.550781 50.640625 283.234375 L 12.601562 283.234375 L 12.601562 270.746094 L 43.832031 270.746094 L 43.832031 258.257812 L 12.601562 258.257812 L 12.601562 95.90625 L 237.472656 95.90625 L 237.472656 108.394531 L 25.09375 108.394531 L 25.09375 120.882812 L 237.472656 120.882812 L 237.472656 258.257812 L 131.28125 258.257812 L 131.28125 270.746094 L 237.472656 270.746094 L 237.472656 283.234375 L 124.476562 283.234375 C 121.472656 265.550781 106.101562 252.011719 87.558594 252.011719 Z M 87.558594 314.453125 C 73.773438 314.453125 62.574219 303.257812 62.574219 289.476562 C 62.574219 275.695312 73.773438 264.5 87.558594 264.5 C 101.34375 264.5 112.542969 275.695312 112.542969 289.476562 C 112.542969 303.257812 101.34375 314.453125 87.558594 314.453125 Z M 324.921875 164.351562 L 353.199219 208.304688 L 274.949219 208.304688 L 274.949219 164.59375 L 324.921875 164.59375 Z M 317.671875 130.007812 C 316.527344 128.203125 314.550781 127.128906 312.425781 127.128906 L 249.964844 127.128906 L 249.964844 89.664062 C 249.964844 86.222656 247.15625 83.417969 243.71875 83.417969 L 6.355469 83.417969 C 2.914062 83.417969 0.109375 86.222656 0.109375 89.664062 L 0.109375 289.476562 C 0.109375 292.917969 2.914062 295.722656 6.355469 295.722656 L 50.640625 295.722656 C 53.640625 313.40625 69.015625 326.941406 87.558594 326.941406 C 106.101562 326.941406 121.472656 313.40625 124.476562 295.722656 L 263.015625 295.722656 C 266.019531 313.40625 281.390625 326.941406 299.933594 326.941406 C 318.476562 326.941406 333.851562 313.40625 336.851562 295.722656 L 368.644531 295.722656 C 372.085938 295.722656 374.890625 292.917969 374.890625 289.476562 L 374.890625 220.792969 C 374.890625 219.597656 374.550781 218.425781 373.890625 217.425781 L 317.671875 130.007812 " fill-opacity="1" fill-rule="nonzero"/></g><path fill="#100f0d" d="M 81.3125 295.722656 L 93.804688 295.722656 L 93.804688 283.234375 L 81.3125 283.234375 L 81.3125 295.722656 " fill-opacity="1" fill-rule="nonzero"/><path fill="#100f0d" d="M 293.6875 295.722656 L 306.179688 295.722656 L 306.179688 283.234375 L 293.6875 283.234375 L 293.6875 295.722656 " fill-opacity="1" fill-rule="nonzero"/><g clip-path="url(#960f6a48cd)"><path fill="#100f0d" d="M 25.09375 70.929688 L 112.542969 70.929688 L 112.542969 58.441406 L 25.09375 58.441406 L 25.09375 70.929688 " fill-opacity="1" fill-rule="nonzero"/></g><g clip-path="url(#9a37144ec1)"><path fill="#100f0d" d="M 12.601562 58.441406 L 0.109375 58.441406 L 0.109375 70.929688 L 12.601562 70.929688 L 12.601562 58.441406 " fill-opacity="1" fill-rule="nonzero"/></g></svg>